PathFileType	4	(X/Y/Z)	Kaydara	
DataRate	CameraRate	NumFrames	NumMarkers	Units	OrigDataRate	OrigDataStartFrame	OrigNumFrames	
120.00	120.00	4	72	mm	120.00	229	261	
Frame#	Time	Hips			RightUpLeg			RightLeg			RightFoot			RightFoot_End			LeftUpLeg			LeftLeg			LeftFoot			LeftFoot_End			Spine			Spine1			Spine2			Spine3			Neck			Head			Head_End			RightShoulder			RightArm			RightForeArm			RightHand			RightHandThumb1			RightHandThumb2			RightHandThumb3			RightHandThumb3_End			RightInHandIndex			RightHandIndex1			RightHandIndex2			RightHandIndex3			RightHandIndex3_End			RightInHandMiddle			RightHandMiddle1			RightHandMiddle2			RightHandMiddle3			RightHandMiddle3_End			RightInHandRing			RightHandRing1			RightHandRing2			RightHandRing3			RightHandRing3_End			RightInHandPinky			RightHandPinky1			RightHandPinky2			RightHandPinky3			RightHandPinky3_End			LeftShoulder			LeftArm			LeftForeArm			LeftHand			LeftHandThumb1			LeftHandThumb2			LeftHandThumb3			LeftHandThumb3_End			LeftInHandIndex			LeftHandIndex1			LeftHandIndex2			LeftHandIndex3			LeftHandIndex3_End			LeftInHandMiddle			LeftHandMiddle1			LeftHandMiddle2			LeftHandMiddle3			LeftHandMiddle3_End			LeftInHandRing			LeftHandRing1			LeftHandRing2			LeftHandRing3			LeftHandRing3_End			LeftInHandPinky			LeftHandPinky1			LeftHandPinky2			LeftHandPinky3			LeftHandPinky3_End			
		X1	Y1	Z1	X2	Y2	Z2	X3	Y3	Z3	X4	Y4	Z4	X5	Y5	Z5	X6	Y6	Z6	X7	Y7	Z7	X8	Y8	Z8	X9	Y9	Z9	X10	Y10	Z10	X11	Y11	Z11	X12	Y12	Z12	X13	Y13	Z13	X14	Y14	Z14	X15	Y15	Z15	X16	Y16	Z16	X17	Y17	Z17	X18	Y18	Z18	X19	Y19	Z19	X20	Y20	Z20	X21	Y21	Z21	X22	Y22	Z22	X23	Y23	Z23	X24	Y24	Z24	X25	Y25	Z25	X26	Y26	Z26	X27	Y27	Z27	X28	Y28	Z28	X29	Y29	Z29	X30	Y30	Z30	X31	Y31	Z31	X32	Y32	Z32	X33	Y33	Z33	X34	Y34	Z34	X35	Y35	Z35	X36	Y36	Z36	X37	Y37	Z37	X38	Y38	Z38	X39	Y39	Z39	X40	Y40	Z40	X41	Y41	Z41	X42	Y42	Z42	X43	Y43	Z43	X44	Y44	Z44	X45	Y45	Z45	X46	Y46	Z46	X47	Y47	Z47	X48	Y48	Z48	X49	Y49	Z49	X50	Y50	Z50	X51	Y51	Z51	X52	Y52	Z52	X53	Y53	Z53	X54	Y54	Z54	X55	Y55	Z55	X56	Y56	Z56	X57	Y57	Z57	X58	Y58	Z58	X59	Y59	Z59	X60	Y60	Z60	X61	Y61	Z61	X62	Y62	Z62	X63	Y63	Z63	X64	Y64	Z64	X65	Y65	Z65	X66	Y66	Z66	X67	Y67	Z67	X68	Y68	Z68	X69	Y69	Z69	X70	Y70	Z70	X71	Y71	Z71	X72	Y72	Z72	

229	1.9	1081.203	893.81699	129.612	1073.1249239634847	848.327019722309	70.06058061654402	1007.6305485004073	439.7727623532249	38.42777882752879	1123.4515729699624	122.26400323040578	-129.76018068600376	1067.8272320013034	11.182193702226073	7.171082510063221	1100.0739389202672	912.5214274595901	202.9495022194837	988.1266916397847	521.7686413649673	300.68755322513977	882.1537119028442	93.66514501994874	343.0151626823244	740.1913297915676	14.20428913587384	244.48927397877367	1040.8124031666227	1017.4390762036488	70.67457009831236	989.3746384087555	1085.8685460033832	25.075153485261694	930.7964465643072	1152.5098344238259	-23.03516799597781	867.4053446565065	1208.5027813636311	-69.80426308928361	799.0257273619876	1268.827786758827	-118.4663222305851	735.2192996396866	1323.2224017158433	-159.89720940061022	596.2672891544007	1400.425007799115	-160.90230030123757	816.9360360929102	1231.9400419765025	-113.93054697478223	791.7206531252242	1167.4833137494013	-131.16678300577567	841.6337196460687	1078.7702037933989	7.708647938695444	770.3180845289635	994.6661752273278	99.96509745784059	771.5645589139001	1005.0758385422215	102.03154187386484	772.127072348344	1003.7746765355126	111.9391971194061	772.0647272485469	999.9299296522917	120.66527484978357	771.6242979522019	994.210822451114	129.50226836972425	769.9809490678125	995.8319516691026	108.65821842115227	768.0855847724582	985.262154845536	129.19487449959558	767.1416386612105	976.1162106379977	144.07417923171374	767.277614864636	972.6613523615204	150.56596387541856	767.8777326749193	971.3067755924967	154.0783909938205	768.8297168086226	988.1221789241395	112.93886319473165	766.3582265873415	973.6430136232304	135.284933729713	765.1829100961065	962.6777260338785	152.02015353433686	765.2772396919526	958.0367996742983	160.09166656758953	765.8999893069395	956.3248033865257	164.051285151007	768.0575864294045	982.9418219944	115.44912601887135	765.1514407603195	965.4595004934796	137.68418659234905	763.9825056410159	954.9179555399857	152.7453095288091	763.9967472810358	949.9187689253363	160.7829759093607	764.5459168849372	948.0613949269368	164.62545776111259	767.2789255197019	977.3020745199875	117.66815214229516	764.1087715530954	957.776588212478	139.47041244121607	762.9599839240078	947.8761676082421	152.17425980609883	762.867458626691	943.5239042447381	158.3482261916232	763.2947068296355	941.4723596683207	161.93117585858909	826.202637076054	1265.3564888623496	-89.56727053950921	850.5159350054541	1309.9694366690646	-42.62002344784889	871.9438312576174	1142.114014883378	41.152578187381	835.7821800087917	1017.9089434987918	98.06112817204641	829.7114109069965	1029.2570764037043	90.86062926252889	825.4874118898518	1027.0437185868302	88.21323055158504	823.0988241742398	1022.4495031316982	88.72347754340578	821.5806397036437	1016.0079003519942	91.16254565638596	831.0351771121639	1019.8557299279831	98.88526362207512	826.2715471616284	1009.3376345320924	107.80500406483515	823.4992664507776	999.3417969321764	112.69191909876362	821.992825846708	994.9613391323862	112.39576102526814	820.8923759576946	992.5726914080478	109.90152063159508	832.7308471629385	1011.7914334639141	104.91426749464318	829.0015843488698	997.1711704154231	116.87577954430333	826.2163434964546	985.2304334409506	122.97330094836961	824.5139857374282	979.4497317941705	122.98306182620829	823.3658570029888	976.5950720845528	120.43234984988298	834.0475554587856	1006.3675343541308	108.9767087857163	831.8400684042977	988.5715200747678	123.31254167404673	829.6635246924595	977.1307791086573	129.3898168920505	828.1548043507261	971.0061794954806	129.80423110540022	827.13845643514	968.0620878972959	127.59783437568439	835.7255457037572	1000.3805390932819	113.15966253110037	834.724243943421	980.3809844709764	128.99263743841968	833.3827048881262	969.6854074750781	134.98616410966682	832.4763932276238	964.4759280089645	135.8336526796029	831.687808966627	961.4408127441623	134.19291220500804
230	1.908	1081.203	893.81699	129.612	1072.272580609439	847.8754563095921	69.81158769391827	1007.8216517175625	439.2280628643655	37.760367152193325	1124.4461706579734	122.33522659319961	-131.8600199819121	1069.3897137178894	10.944595470875447	5.108102110884846	1100.921429835371	912.9728306250151	203.19752067320363	988.8356030684218	522.20080035468	300.70139903600807	883.0057415582215	93.73187138654633	341.80748319962026	741.0769582673582	13.89543123226709	243.46612687404163	1040.9362789764461	1017.4419086585942	70.61372455926595	989.4709741967106	1085.8501537398945	25.016840349760905	930.843216772839	1152.4608870541729	-23.07332200045219	867.3697227103509	1208.4071555093792	-69.78684571106928	798.9173906540958	1268.6810902945776	-118.40720732250529	735.1806711353051	1323.1533089668549	-159.85834933158552	596.2185637438765	1400.3368068422224	-160.74388997224338	816.5720823378606	1231.4948101230002	-113.78678842266538	790.2155321265285	1165.8410715321993	-130.59965525162204	840.3112651749577	1079.0440577800914	10.264878145683628	766.0813639376205	992.1671143105475	104.07026882859691	767.7955380914192	1002.8044801142778	106.16884206101487	768.6128886230094	1001.4604430018992	116.4257657423308	768.6358272247014	997.606151597197	125.4603941322587	768.1876529775708	991.8964548372062	134.61047745856015	765.9216771544185	993.6934583374093	113.02412528975769	763.9674954396288	983.5803071870289	134.23818301575477	762.9972692427123	974.5427766654128	149.63410594229185	763.2045918974387	970.9884481110386	156.36611983121955	763.9228945347277	969.4389669468836	160.02278737688198	764.5224915266322	986.0130776410153	117.4609724982105	761.8595112422704	971.9952498998211	140.55224455508773	760.6229997227049	961.1504060779697	157.86967101194412	760.7878072981931	956.3904807555764	166.2398803670853	761.5322916466624	954.4657299856589	170.3616348001164	763.575916606824	980.844170890586	120.06442196297807	760.3444935072663	963.7921161115623	143.04851257446595	759.0893097486726	953.3569804210459	158.63479263818368	759.1540533869209	948.2437755616616	166.9699815393175	759.8094056268311	946.1867159002468	170.9693657213992	762.6039143400561	975.1858907756945	122.37040819125312	759.0136492650843	956.0516429606423	144.91385225265677	757.7458613332669	946.2367635904673	158.06257447954144	757.6660208909933	941.8015007574155	164.46533647451963	758.1734323911139	939.5731562582858	168.1940480060756	826.3981439811367	1265.5577604914445	-89.6041867729811	851.68401132968	1311.4988475230818	-42.51328594264464	871.3782298073256	1142.5753175892362	43.33455352531919	832.666379268117	1017.3775474130503	101.97311637416317	826.096724466589	1028.060603124888	94.99084067505183	821.5165396210327	1025.381783275008	91.99905587696902	818.8982462894289	1020.4643522154562	92.2325278867934	817.2042611661774	1013.7540633300102	94.40926321184507	827.4233383865703	1018.5692234968664	102.95146087652009	822.0439701389839	1007.0403203222636	111.76024935608682	818.934815061477	996.5135347955913	116.31145605381772	817.3020599446065	991.9753473461449	115.70341626256263	816.1531291508636	989.572406631386	112.88141540281607	829.194698494592	1010.5507851374364	108.87156241710225	824.9057690848683	994.96938081597	120.66602808492655	821.7650346945967	982.4588150261528	126.38289627240792	819.9160909409939	976.4923976178933	126.00949750459131	818.7177346362257	973.6243229918449	123.09681412540317	830.5796588307173	1005.1831377086878	112.86225501312482	827.9271219221841	986.5688799719281	126.99300634991593	825.4539824343477	974.6427746514985	132.72409380795867	823.8109094979525	968.3450322500565	132.76126571621356	822.750676407963	965.3911719273324	130.21090671685133	832.3615048562675	999.305592396156	116.94713512798158	831.0127010216378	978.6161612628238	132.53943225667598	829.456293294518	967.553123302345	138.23414321676697	828.4629283501357	962.227612243265	138.79600406574835	827.6417728230878	959.1897469347173	136.8445547583874
231	1.917	1081.203	893.81699	129.612	1071.24675049119	847.4531626866521	69.70644166313244	1007.5438737532593	438.72794724868703	37.445560520393016	1124.967489833665	122.46089084746124	-133.60814973493072	1070.4345486851566	10.712556388748604	3.3403774466757503	1101.9472264252056	913.3950150261218	203.2995281021858	989.7947694462731	522.5733021570993	300.53476023665746	884.1004440389501	93.74387265064738	340.43031052312114	742.1782060999902	13.544250242788449	242.30163109034405	1041.0377394082236	1017.4314508934398	70.53757427899063	989.6373125224264	1085.8812800704347	24.94182825141342	931.0651927848147	1152.5446437382157	-23.133054219663727	867.6087348950654	1208.5442625051535	-69.80131319082471	799.1855999279092	1268.875788806665	-118.38361145934789	735.5281763208461	1323.4233212986676	-159.87710635937006	596.6131488239445	1400.6965474513504	-160.53604441783614	816.6042851330973	1231.3439242127106	-113.88135257282917	789.1129865390474	1164.4946789655407	-130.30140537785888	836.1454455373485	1076.3798367653387	13.918847001387572	759.3050653652666	988.748411553915	110.02995378524496	759.3397772369096	997.9861449133473	112.74549672084675	759.3764078396993	996.1775174033268	123.74730614033928	759.0452300480748	992.0129646497502	133.21901294998307	758.4639885041921	986.0559930717812	142.6635986261299	757.9366189475566	988.6777028296328	119.3334619123557	755.0752442011092	976.6783077517407	140.91400742508665	753.7660431270206	966.9512613372052	156.73148711997337	753.8390792230839	963.4458265794801	163.8550715660201	754.497814779304	962.2589372790189	167.92319123567157	757.0984721287978	981.1287290887074	123.54335415038096	753.8540274380152	965.3420325747715	146.86926703181004	752.324970427752	953.7690231454535	164.61576908939168	752.3648863991787	949.0797176107264	173.44355249990141	753.0622309834993	947.5573682830948	178.0082928410771	756.5695147737893	976.0941841408159	125.97494560362139	753.1739226775501	957.5541557091201	149.01385012128358	751.743738724036	946.5119808430571	164.94215714743441	751.7304789837258	941.4815642028366	173.70174009582223	752.3616344281126	939.809824886909	178.10959838321514	756.1201718462848	970.6975288278054	128.08919260454442	752.6948346730511	950.3369993785539	150.55760577855486	751.4124360941959	940.0856739865177	163.9301281968065	751.3364148659825	935.7348120687798	170.6182186057316	751.8573313833181	933.8616256105132	174.69483901296786	826.8749549471873	1266.0674535942119	-89.46948075829957	853.1248384282842	1313.3330016512239	-42.23302946170777	871.1505389958761	1143.3305167540504	45.67214448078189	829.9920836742717	1017.1484175799488	106.1032073959212	823.1994654894219	1027.707064472361	99.10429356536571	818.2712854485087	1024.9544150377035	95.97400094374863	815.3965733197967	1019.995176582475	96.14226418651121	813.4767832506036	1013.2582819811925	98.2913654292043	824.4588527616404	1018.234765309806	107.198823829969	818.5677992446779	1006.5979029337434	116.2013320794794	815.0828707825619	996.0173581966783	120.76227904560119	813.2568565332517	991.4580186032111	120.05115405959262	811.9751940417934	989.0458533901844	117.07022479504177	826.2088036524383	1010.2472692168866	113.19122536920948	821.4092190972601	994.5772927663638	125.21378344692972	817.8572469701276	982.0125256644315	130.95004372071392	815.7745719615776	976.0227340972033	130.45648204582403	814.4307004073822	973.1456116016341	127.37193874542463	827.5917006623438	1004.9040616071927	117.22957866790614	824.4797386821024	986.2311298173507	131.61054007072772	821.6477555781212	974.262479966528	137.36709159781051	819.7790110503772	967.9446894589718	137.29291560169204	818.5818511091811	964.9834984785016	134.58311336541306	829.3859390296284	999.0591988070645	121.35185324636701	827.6232548452565	978.3354787093191	137.2018306782316	825.7808618354239	967.2459656336744	142.9292068061588	824.6235512768582	961.9094919281448	143.41578933276963	823.6814756052227	958.8672512808453	141.32652278202417
232	1.925	1081.203	893.81699	129.612	1070.2871561721113	847.0389133488559	69.55631018417749	1006.9889022579268	438.23008958939545	37.477018358340736	1125.1976375227441	122.55335098931933	-134.96217859642456	1071.1599857729138	10.392118511644266	1.9012687883815789	1102.9344083474466	913.8031794830438	203.42120294632383	990.7522860514676	522.9279440214056	300.43009622684013	885.1831101672288	93.74312841476221	339.1193388022554	743.2903886932329	13.146786804866084	241.20269907488222	1041.011872371209	1017.4594247417587	70.57672202378012	989.5509894938333	1085.9425776058351	25.096775061689883	930.9080152349673	1152.6451721355088	-22.835309493931472	867.36321188312	1208.6859516460254	-69.32507550487534	798.8599412332794	1269.0542459010244	-117.7385372799285	735.2586790457392	1323.7426064808938	-159.13835916698497	596.3310764653457	1400.9931554952611	-159.68609075009985	816.0037344242241	1231.2197918675972	-113.19043672609217	787.3882875428767	1163.1870498413084	-129.21231529155256	835.3669529264511	1077.6803146726027	16.731707728469523	756.6276244338303	991.6931175700204	116.01528757231317	757.6024323342456	1001.6777259209088	118.67128189854702	758.1375616700386	999.9904471168765	129.93820947398154	757.9893289771209	995.9166956307566	139.69393975286283	757.4201528142444	990.0407895359672	149.46035989358893	755.7004015419296	992.5403754047736	125.6114703020268	752.8893057968955	981.6206036818123	148.00223610370406	751.596563377105	972.2173865925586	164.37641828518042	751.7995090881983	968.5897290652238	171.698339250133	752.6464925081306	967.0834483365574	175.83094402503164	754.4130447810345	984.9506104571944	130.06319422872485	750.974664102524	970.1949970997387	154.31019309031834	749.4041060652579	958.9659298228024	172.69343497264845	749.5722096690573	954.1246529165717	181.77454973403033	750.4616640281838	952.2506245162612	186.41667915350297	753.5645570693378	979.8642954300751	132.64585299742555	749.7152237724147	962.2168239467421	156.64395021901004	748.1884047645042	951.4631271317342	173.15570064749625	748.266701234073	946.2801218118656	182.17475348530178	749.0632730130783	944.274865369897	186.66254016777643	752.7523749432777	974.3404746854011	134.90378003497534	748.6842669960788	954.7359774967518	158.34376091700648	747.2321446701014	944.6940948836329	172.22369379359918	747.178233960438	940.2215054093734	179.1204949607046	747.819980745802	938.0468721013112	183.2791044780023	826.8797219535932	1266.5382208198473	-88.96586163553935	854.0895845921161	1315.125516996215	-41.613561789129115	870.4399771249268	1144.037756899695	48.31623070370837	826.8050474503646	1016.8559182268318	110.4610200624049	819.8165173755483	1027.3517700845562	103.39889055048778	814.5483793723943	1024.5600710189	100.15911468746852	811.4214644475287	1019.5859916069497	100.29365532227266	809.2781963505474	1012.8472737472368	102.45101140611321	821.0081458117595	1017.9188073277785	111.65887497026313	814.6323864598318	1006.2882004745417	120.89364010489652	810.7800505505822	995.7074568273781	125.51549405605866	808.7593088187198	991.1349556429334	124.7342875360385	807.3391835136365	988.7030959795502	121.62253250189306	822.7314900901474	1009.9644551536552	117.75404286919752	817.4447560156406	994.3185048216827	130.0587487088326	813.4898968053805	981.7578710566864	135.87413850208142	811.1713389518435	975.754280860304	135.30210903327833	809.6755118796364	972.856617654072	132.0773840655448	824.1080694806438	1004.6446310987408	121.86040871228053	820.554356557347	986.0139049704061	136.55721649154606	817.3699593393334	974.0532567647426	142.39524848248973	815.2730206769703	967.7244962857117	142.252016395189	813.9326711846342	964.745105291821	139.41355846875874	825.9082181045784	998.8255240678504	126.04373598810606	823.7442130776504	978.1568255503041	142.22564726328062	821.6195836471785	967.0804031569317	148.0363779567417	820.2958142461038	961.7391716850522	148.48135957204434	819.2268909026263	958.6826635174228	146.28315753054986
